<svg xmlns="http://www.w3.org/2000/svg" viewBox="0 0 1061.27 504.05"><defs><style>.cls-1{fill:#00628e;}.cls-2{fill:#67c977;}</style></defs><title>LOGO SVG</title><g id="Capa_2" data-name="Capa 2"><g id="Capa_1-2" data-name="Capa 1"><path class="cls-1" d="M151.76,166.37q18.47,10.51,29.29,30.35t10.83,45.76q0,25.92-10.83,45.6a76.14,76.14,0,0,1-29.29,30.2,80.12,80.12,0,0,1-40.42,10.53q-27.75,0-42.4-14.34v70.46H0v-226H65.59v13.73q14.94-16.77,45.75-16.78A80.12,80.12,0,0,1,151.76,166.37Zm-37.37,100.2Q122,258,122,242.48t-7.63-24.26a24.81,24.81,0,0,0-19.52-8.69,24.81,24.81,0,0,0-19.52,8.69q-7.63,8.7-7.63,24.26t7.63,24.09a25,25,0,0,0,19.52,8.55A25,25,0,0,0,114.39,266.57Z"/><path class="cls-1" d="M251.82,317.67q-22.12-11.13-34.62-30.81t-12.51-44.69q0-25,12.51-44.69t34.62-30.66q22.11-11,49.88-11,28.05,0,50.18,11t34.47,30.66q12.34,19.68,12.35,44.69t-12.35,44.69Q374,306.54,351.88,317.67T301.7,328.81Q273.94,328.81,251.82,317.67Zm69.4-51.25q7.62-8.69,7.62-24.25t-7.62-24.1a26.59,26.59,0,0,0-39.05,0q-7.62,8.55-7.62,24.1t7.62,24.25a26.26,26.26,0,0,0,39.05,0Z"/><path class="cls-1" d="M443.54,324.23q-20.75-4.58-33.55-11.9l18.91-45.45a99.13,99.13,0,0,0,27.45,11,126.61,126.61,0,0,0,30.81,4c7.94,0,13.47-.66,16.63-2s4.73-3.3,4.73-5.94-2-4.48-5.95-5.5a161.81,161.81,0,0,0-19.37-3,253.17,253.17,0,0,1-34.78-6.25,54.44,54.44,0,0,1-25.16-14.79q-10.85-11-10.83-31.42a46.57,46.57,0,0,1,9.76-29q9.75-12.82,29.13-20.44t46.52-7.63a194.9,194.9,0,0,1,37.07,3.51q18.14,3.51,31,10.22L547,215a97.62,97.62,0,0,0-48.19-12.2q-22.59,0-22.58,7.93,0,4,6.1,5.64a141.45,141.45,0,0,0,19.22,3.21,234.62,234.62,0,0,1,34.62,6.4,55.86,55.86,0,0,1,25,14.95q10.83,11,10.83,31.42a45.76,45.76,0,0,1-9.76,28.37q-9.76,12.81-29.29,20.44t-47.28,7.63A194.89,194.89,0,0,1,443.54,324.23Z"/><path class="cls-1" d="M785.5,325.75l-.61-97.31-46.37,78.1H706.8L660.43,231.8v93.95H594.84V112.22H654L723.58,226,791.3,112.22h59.18l.61,213.53Z"/><path class="cls-1" d="M1060.35,258.34H944.43a28.13,28.13,0,0,0,12.2,14.49q8.54,5,21.36,5,11,0,18.45-2.74a64.65,64.65,0,0,0,16.32-9.46l36,36.3q-24.4,26.85-72.91,26.85-30.2,0-53.08-11.14t-35.38-31q-12.51-19.83-12.51-44.54,0-25,12.35-44.69a84.45,84.45,0,0,1,33.87-30.66q21.49-11,48.34-11,25.32,0,46.22,10.07a79.32,79.32,0,0,1,33.25,29.59q12.36,19.51,12.36,46.67Q1061.27,243.7,1060.35,258.34Zm-108-49.73q-7,5.8-9.15,16.48H996.9q-2.14-10.36-9.15-16.32t-17.69-6Q959.37,202.82,952.36,208.61Z"/><path class="cls-1" d="M54.82,449,33.44,498.86h-12L0,449H12.14l15.5,37,16-37Z"/><path class="cls-1" d="M107.4,482.19H68.27a13.52,13.52,0,0,0,5.37,8.73,17.6,17.6,0,0,0,10.79,3.23A18.18,18.18,0,0,0,98,488.73l6.26,7.19a21.08,21.08,0,0,1-8.5,6.07,31,31,0,0,1-11.58,2.06,30.82,30.82,0,0,1-14.48-3.27A23.54,23.54,0,0,1,60,491.67a25.62,25.62,0,0,1-3.41-13.21,26.14,26.14,0,0,1,3.31-13.13,23.53,23.53,0,0,1,9.2-9.1A26.82,26.82,0,0,1,82.37,453a26.14,26.14,0,0,1,13,3.22,22.86,22.86,0,0,1,9,9.06,27.45,27.45,0,0,1,3.22,13.5C107.59,479.55,107.53,480.7,107.4,482.19ZM72.89,465.61a14,14,0,0,0-4.71,8.83h28.3A13.64,13.64,0,0,0,82.37,462.3,14.1,14.1,0,0,0,72.89,465.61Z"/><path class="cls-1" d="M162.22,458.47q5.7,5.5,5.7,16.34v28.58H156.25V476.31q0-6.54-3.08-9.86t-8.78-3.31q-6.45,0-10.18,3.87t-3.74,11.17v25.21H118.8V453.52h11.11V460a18.38,18.38,0,0,1,7.28-5.23,26.3,26.3,0,0,1,9.9-1.77Q156.52,453,162.22,458.47Z"/><path class="cls-1" d="M212.75,500.68a13.87,13.87,0,0,1-5,2.53,22.5,22.5,0,0,1-6.21.84q-8.22,0-12.7-4.3c-3-2.86-4.48-7-4.48-12.51v-24h-8.22v-9.34h8.22V442.5H196v11.39h13.36v9.34H196V487a7.85,7.85,0,0,0,1.78,5.56,6.63,6.63,0,0,0,5.13,1.92,10.25,10.25,0,0,0,6.54-2.06Z"/><path class="cls-1" d="M258.28,458.24q5.84,5.26,5.84,15.92v29.23h-11v-6.07a13.65,13.65,0,0,1-6.12,5,24,24,0,0,1-9.57,1.73,23.39,23.39,0,0,1-9.81-1.92,15.09,15.09,0,0,1-6.49-5.32,13.47,13.47,0,0,1-2.29-7.71,13.19,13.19,0,0,1,5-10.78q5-4.06,15.73-4.07h12.89v-.74q0-5.24-3.13-8t-9.29-2.8a26.81,26.81,0,0,0-8.26,1.31,20.42,20.42,0,0,0-6.87,3.64l-4.58-8.5a28.43,28.43,0,0,1,9.44-4.57A41.86,41.86,0,0,1,241.42,453Q252.45,453,258.28,458.24Zm-10.65,35.3a10.9,10.9,0,0,0,4.81-5.75V482h-12q-10.1,0-10.09,6.64a6,6,0,0,0,2.52,5,11.53,11.53,0,0,0,7,1.87A15.05,15.05,0,0,0,247.63,493.54Z"/><path class="cls-1" d="M282.61,502.46a29.84,29.84,0,0,1-9.25-4l4.48-8.87a29,29,0,0,0,8.08,3.59,33.34,33.34,0,0,0,9.3,1.36q10.45,0,10.46-5.51a3.68,3.68,0,0,0-2.67-3.64,45.23,45.23,0,0,0-8.54-2,70.09,70.09,0,0,1-10-2.15,15.41,15.41,0,0,1-6.72-4.25q-2.85-3-2.85-8.45a13.26,13.26,0,0,1,5.93-11.35q5.93-4.24,16-4.25a46.19,46.19,0,0,1,10.28,1.17,29.1,29.1,0,0,1,8.4,3.12L311,466.13a27.66,27.66,0,0,0-14.29-3.74c-3.42,0-6,.52-7.8,1.54a4.61,4.61,0,0,0-2.66,4.07,4,4,0,0,0,2.85,4,44.75,44.75,0,0,0,8.82,2.2,67.46,67.46,0,0,1,9.81,2.15,15.41,15.41,0,0,1,6.59,4.11q2.74,2.9,2.75,8.22a13,13,0,0,1-6.07,11.2q-6.08,4.2-16.53,4.21A44.57,44.57,0,0,1,282.61,502.46Z"/><path class="cls-1" d="M388.84,458.24q5.84,5.26,5.84,15.92v29.23h-11v-6.07a13.55,13.55,0,0,1-6.12,5,24,24,0,0,1-9.57,1.73,23.39,23.39,0,0,1-9.81-1.92,15.15,15.15,0,0,1-6.49-5.32,13.55,13.55,0,0,1-2.29-7.71,13.19,13.19,0,0,1,5-10.78q5-4.06,15.74-4.07H383v-.74c0-3.49-1.05-6.17-3.13-8s-5.19-2.8-9.3-2.8a26.86,26.86,0,0,0-8.26,1.31,20.42,20.42,0,0,0-6.87,3.64l-4.57-8.5a28.38,28.38,0,0,1,9.43-4.57A41.91,41.91,0,0,1,372,453Q383,453,388.84,458.24Zm-10.64,35.3a11,11,0,0,0,4.81-5.75V482H371q-10.09,0-10.09,6.64a6,6,0,0,0,2.52,5,11.54,11.54,0,0,0,7,1.87A15.1,15.1,0,0,0,378.2,493.54Z"/><path class="cls-1" d="M409.62,434.09H421.3v69.3H409.62Z"/><path class="cls-1" d="M540.28,458.42q5.51,5.46,5.51,16.39v28.58H534.11V476.31q0-6.54-2.89-9.86c-1.93-2.2-4.7-3.31-8.31-3.31a12.19,12.19,0,0,0-9.44,3.87q-3.54,3.89-3.55,11.07v25.31H498.25V476.31q0-6.54-2.89-9.86c-1.93-2.2-4.71-3.31-8.32-3.31a12.24,12.24,0,0,0-9.48,3.83q-3.49,3.82-3.5,11.11v25.31H462.39V453.52H473.5v6.35a18.22,18.22,0,0,1,7-5.14,23.8,23.8,0,0,1,9.33-1.77,22.56,22.56,0,0,1,10,2.1,16.11,16.11,0,0,1,6.87,6.21,20.9,20.9,0,0,1,7.93-6.12A25.84,25.84,0,0,1,525.33,453Q534.77,453,540.28,458.42Z"/><path class="cls-1" d="M596.64,458.24q5.83,5.26,5.84,15.92v29.23h-11v-6.07a13.65,13.65,0,0,1-6.12,5,24,24,0,0,1-9.57,1.73,23.39,23.39,0,0,1-9.81-1.92,15.09,15.09,0,0,1-6.49-5.32,13.47,13.47,0,0,1-2.29-7.71,13.19,13.19,0,0,1,5-10.78q5-4.06,15.74-4.07H590.8v-.74q0-5.24-3.12-8t-9.3-2.8a26.86,26.86,0,0,0-8.26,1.31,20.42,20.42,0,0,0-6.87,3.64l-4.57-8.5a28.28,28.28,0,0,1,9.43-4.57A41.86,41.86,0,0,1,579.78,453Q590.81,453,596.64,458.24ZM586,493.54a10.86,10.86,0,0,0,4.81-5.75V482h-12q-10.1,0-10.09,6.64a6,6,0,0,0,2.52,5,11.54,11.54,0,0,0,7,1.87A15,15,0,0,0,586,493.54Z"/><path class="cls-1" d="M649.17,503.39l-12.79-17.28-12.89,17.28H610.6L630,478.08l-18.59-24.56h13l12.24,16.34,12.23-16.34H661.5L642.82,477.9l19.52,25.49Z"/><path class="cls-1" d="M671.5,443.29a6.88,6.88,0,0,1,0-10,7.48,7.48,0,0,1,5.32-2,7.68,7.68,0,0,1,5.32,1.92,6.17,6.17,0,0,1,2.15,4.81,7,7,0,0,1-2.1,5.18,7.27,7.27,0,0,1-5.37,2.1A7.48,7.48,0,0,1,671.5,443.29Zm-.56,10.23h11.67v49.87H670.94Z"/><path class="cls-1" d="M775.82,458.42q5.5,5.46,5.51,16.39v28.58H769.65V476.31q0-6.54-2.89-9.86c-1.93-2.2-4.71-3.31-8.32-3.31A12.19,12.19,0,0,0,749,467q-3.56,3.89-3.55,11.07v25.31H733.79V476.31q0-6.54-2.9-9.86c-1.93-2.2-4.7-3.31-8.31-3.31A12.22,12.22,0,0,0,713.1,467q-3.5,3.82-3.5,11.11v25.31H697.92V453.52H709v6.35a18.26,18.26,0,0,1,7-5.14,23.88,23.88,0,0,1,9.34-1.77,22.59,22.59,0,0,1,10,2.1,16.15,16.15,0,0,1,6.86,6.21,20.93,20.93,0,0,1,7.94-6.12A25.84,25.84,0,0,1,760.87,453Q770.31,453,775.82,458.42Z"/><path class="cls-1" d="M805.51,500.78a24,24,0,0,1-9.48-9.11,27.21,27.21,0,0,1,0-26.38,24,24,0,0,1,9.48-9.06,30.27,30.27,0,0,1,27.37,0,24,24,0,0,1,9.48,9.06,27.21,27.21,0,0,1,0,26.38,24,24,0,0,1-9.48,9.11,30.27,30.27,0,0,1-27.37,0Zm24.29-11q4.2-4.31,4.2-11.3t-4.2-11.31a14.3,14.3,0,0,0-10.65-4.29,14.11,14.11,0,0,0-10.6,4.29q-4.15,4.31-4.16,11.31t4.16,11.3a14.11,14.11,0,0,0,10.6,4.29A14.3,14.3,0,0,0,829.8,489.76Z"/><rect class="cls-2" width="358.35" height="62.07"/></g></g></svg>